<svg fill="none" height="77" viewBox="0 0 68 77" width="68" xmlns="http://www.w3.org/2000/svg"><g stroke="#ba936b"><path d="m45.7575 13.8572 3.182-3.3872c1.8853-2.28869 1.5923-5.70087-.6546-7.62131-2.2469-1.920443-5.5967-1.62192-7.482.66678l-2.5353 2.62634m-17.7078 7.65679-2.7422-3.3288c-2.0089-2.43875-1.6966-6.07468.6976-8.12105 2.3942-2.046375 5.9636-1.728272 7.9726.7105l2.7422 3.32882" stroke-width="2"/><rect fill="#fff" height="51.2436" rx="7.5" stroke-width="3" width="58.0234" x="4.64419" y="19.8076"/><path d="m59.8483 7.0785c-.0675 1.34915-.7253 3.268-.7253 3.268-2.7559 5.9133-13.0401 10.4201-25.3695 10.6053-12.3295.1853-22.7396-4.0106-25.66558-9.8386m0 0s-.80332-2.12198-.81957-3.24479z" stroke-linecap="round" stroke-linejoin="round" stroke-width="2"/><rect fill="#fff" height="14.8988" rx="3" stroke-width="3" width="64.0779" x="1.61694" y="14.2122"/><rect height="62.3839" rx="5.52968" stroke-width="2" width="11.0594" x="28.0391" y="4.39209"/><path d="m50.0684 59.2635c0 9.2608-7.3655 16.7366-16.4125 16.7366-9.0471 0-16.4125-7.4758-16.4125-16.7366 0-9.2609 7.3654-16.7366 16.4125-16.7366 9.047 0 16.4125 7.4757 16.4125 16.7366z" fill="#fff" stroke-width="2"/></g><path d="m29.4769 58.1907c-.6408 0-1.2259-.1419-1.7552-.4256-.5154-.298-.9263-.6882-1.2328-1.1707-.3065-.4966-.4597-1.0429-.4597-1.6388 0-.596.1532-1.1352.4597-1.6176s.7174-.8656 1.2328-1.1493c.5293-.298 1.1144-.447 1.7552-.447s1.2189.149 1.7343.447c.5293.2837.9472.6669 1.2537 1.1493.3064.4824.4597 1.0216.4597 1.6176 0 .5959-.1533 1.1422-.4597 1.6388-.3065.4825-.7244.8727-1.2537 1.1707-.5154.2837-1.0935.4256-1.7343.4256zm-2.2567 7.8751 5.8715-7.0024 5.4327-7.2791 1.2746 1.1493-5.7252 6.896-5.5999 7.3855zm2.2567-9.3011c.404 0 .7522-.1774 1.0447-.5321.2926-.3689.4388-.7946.4388-1.277 0-.4825-.1462-.901-.4388-1.2558-.2925-.3547-.6407-.5321-1.0447-.5321s-.7522.1774-1.0448.5321c-.2925.3548-.4388.7733-.4388 1.2558 0 .4966.1463.9223.4388 1.277.2926.3547.6408.5321 1.0448.5321zm8.0654 10.5143c-.6407 0-1.2188-.1419-1.7342-.4257-.5154-.298-.9333-.6882-1.2537-1.1706-.3065-.4824-.4597-1.0216-.4597-1.6176 0-.5959.1532-1.1351.4597-1.6176.3204-.4966.7383-.8868 1.2537-1.1706.5154-.298 1.0935-.447 1.7342-.447.6408 0 1.2189.149 1.7343.447.5294.2838.9473.674 1.2537 1.1706.3065.4825.4597 1.0217.4597 1.6176 0 .596-.1532 1.1352-.4597 1.6176-.3064.4824-.7243.8726-1.2537 1.1706-.5154.2838-1.0935.4257-1.7343.4257zm0-1.426c.4179 0 .7662-.1774 1.0448-.5321.2925-.3548.4388-.7734.4388-1.2558 0-.4966-.1463-.9223-.4388-1.277-.2925-.3548-.6408-.5321-1.0448-.5321-.4039 0-.7522.1844-1.0447.5534-.2925.3547-.4388.7733-.4388 1.2557s.1463.901.4388 1.2558c.2925.3547.6408.5321 1.0447.5321z" fill="#ba936b"/></svg>