<svg fill="none" height="78" viewBox="0 0 78 78" width="78" xmlns="http://www.w3.org/2000/svg"><g stroke="#ba936b"><path d="m66.8262 66.7436c-.5197-1.58.6572-3.206 2.3204-3.206 1.2745 0 2.3348.9799 2.4351 2.2504l.5789 7.3322c.0716.9068-.645 1.6822-1.5547 1.6822-.6735 0-1.271-.4324-1.4814-1.0722z" fill="#fff" stroke-width="2"/><path d="m47.2271 66.7436c.5197-1.58-.6572-3.206-2.3204-3.206-1.2745 0-2.3348.9799-2.4351 2.2504l-.5789 7.3322c-.0715.9068.645 1.6822 1.5547 1.6822.6736 0 1.271-.4324 1.4814-1.0722z" fill="#fff" stroke-width="2"/><rect fill="#fff" height="42.0949" rx="8" stroke-width="3" width="30.2372" x="42.0563" y="22.925"/><rect fill="#fff" height="5.92885" rx="2.96443" stroke-width="3" width="30.2372" x="42.0563" y="53.7534"/><rect fill="#fff" height="19.5652" rx="3" stroke-width="3" width="7.11462" x="69.3291" y="43.9712"/><rect fill="#fff" height="19.5652" rx="3" stroke-width="3" width="7.11462" x="36.8685" y="43.9712"/><path d="m18.6551 73.8928h56.2886" stroke-linecap="round" stroke-linejoin="round" stroke-width="3"/><path d="m10.2441 76.97h58.2885" stroke-linecap="round" stroke-linejoin="round"/><path d="m10.9299 71.945v-59.2069c0-5.67093 4.5972-10.26813 10.2681-10.26813 5.671 0 10.2681 3.66702 10.2681 9.33793" stroke-width="3"/></g><path clip-rule="evenodd" d="m19.3569 74.8038c.1114-.2665.1698-.5421.1698-.8241 0-2.3289-3.9816-4.2168-8.8933-4.2168-4.9116 0-8.89326 1.8879-8.89326 4.2168 0 .282.0584.5576.16977.8241z" fill="#fff" fill-rule="evenodd"/><path d="m19.3569 74.8038v1h.666l.2567-.6144zm-17.44699 0-.922687.3856.256747.6144h.66594zm16.61679-.8241c0 .1407-.0286.2856-.0924.4386l1.8453.7711c.1589-.3802.2471-.7864.2471-1.2097zm-7.8933-3.2168c2.3414 0 4.4121.4521 5.8601 1.1387 1.524.7226 2.0332 1.5245 2.0332 2.0781h2c0-1.7753-1.4816-3.0817-3.1763-3.8853-1.7708-.8396-4.1467-1.3315-6.717-1.3315zm-7.89326 3.2168c0-.5536.50924-1.3555 2.03321-2.0781 1.44802-.6866 3.51873-1.1387 5.86005-1.1387v-2c-2.57025 0-4.94618.4919-6.7169 1.3315-1.69477.8036-3.176357 2.11-3.176357 3.8853zm.09246.4386c-.0639-.153-.09246-.2979-.09246-.4386h-1.999997c0 .4233.088231.8295.24708 1.2097zm-.92269 1.3855h17.44699v-2h-17.44699z" fill="#ba936b"/><path clip-rule="evenodd" d="m35.1373 11.2453c-.0596-.2968-.1392-.5976-.2396-.8992-.8311-2.49797-2.7701-4.10202-4.3309-3.58273-1.5608.51928-2.1523 2.96525-1.3213 5.46323.1004.3016.2169.5902.3469.8635z" fill="#fff" fill-rule="evenodd"/><path d="m35.1373 11.2453.3157.9489.839-.2791-.1743-.8669zm-5.5449 1.8448-.903.4296.3797.7984.839-.2791zm4.3564-2.4283c.0875.263.1566.5242.2081.7806l1.9608-.3942c-.0678-.3371-.1579-.6776-.2711-1.0178zm-3.0663-2.94957c.3351-.11148.8553-.0402 1.486.48155.6179.51114 1.2145 1.36836 1.5803 2.46802l1.8978-.6314c-.4653-1.39831-1.2537-2.5921-2.2033-3.37766-.9367-.77494-2.1664-1.24604-3.3922-.83824zm-.6881 4.19867c-.3658-1.0996-.4017-2.14344-.2132-2.92286.1924-.79561.5662-1.16433.9013-1.27581l-.6314-1.89773c-1.2257.40781-1.9281 1.52172-2.2139 2.7034-.2897 1.19788-.2057 2.6261.2595 4.0244zm.3011.7497c-.1124-.2362-.2136-.4867-.3011-.7497l-1.8977.6314c.1132.3402.2449.6668.3927.9774zm-.5874 1.3784 5.5449-1.8448-.6314-1.8977-5.5449 1.8448z" fill="#ba936b"/><path clip-rule="evenodd" d="m41.9375 18.8c-.1047-.5763-.2529-1.1588-.4466-1.741-1.6001-4.8095-5.6993-7.77609-9.1559-6.6261-3.4565 1.15-4.9614 5.9811-3.3612 10.7905.1937.5823.424 1.1375.6854 1.6617z" fill="#fff" fill-rule="evenodd"/><path d="m41.9375 18.8.3157.9489.8234-.274-.1552-.8537zm-12.2783 4.0851-.8949.4462.3872.7766.8234-.274zm10.8828-5.5105c.1789.5377.3154 1.0745.4117 1.6042l1.9677-.3576c-.1132-.6229-.2731-1.2511-.4817-1.8779zm-7.8913-5.9928c1.3449-.4475 2.9015-.1248 4.3721.9394 1.469 1.0632 2.7778 2.825 3.5192 5.0534l1.8977-.6313c-.8587-2.581-2.3996-4.7072-4.2443-6.0423-1.8432-1.33388-4.0644-1.91951-6.176-1.21697zm-2.7281 9.526c-.7414-2.2285-.749-4.4232-.2097-6.1545.5399-1.7332 1.593-2.9241 2.9378-3.3715l-.6313-1.89777c-2.1117.70257-3.5393 2.50217-4.216 4.67447-.6772 2.1741-.6372 4.7996.2215 7.3806zm.6315 1.531c-.2403-.4818-.4526-.9934-.6315-1.531l-1.8977.6313c.2085.6268.4569 1.2257.7394 1.7922zm-.5792 1.3951 12.2783-4.085-.6314-1.8977-12.2783 4.085z" fill="#ba936b"/><path d="m39.7607 17.9692c-.5974-3.0998-2.9514-5.5-5.7841-5.9321" stroke="#ba936b" stroke-linecap="round" stroke-linejoin="round"/><path d="m55.2773 45.5085c.0638-.0954.1322-.1876.2051-.2763-.1585-.2989-.2412-.6322-.2407-.9705-.3904-.3873-.6112-.9137-.6139-1.4636-.0026-.5499.213-1.0784.5997-1.4694.0043-.5447.2226-1.0659.6079-1.451.3852-.3851.9064-.6033 1.4511-.6075.1934-.2006.4252-.3601.6816-.4689s.5322-.1647.8107-.1643c.5591 0 1.0666.2211 1.4396.581.2734-.0013.5445.0513.7975.155.2531.1037.4832.2563.6771.4491.194.1927.348.4219.4531.6744.1052.2524.1595.5231.1598.7966.3974.3958.6215.9332.6231 1.4941 0 .5632-.2247 1.0749-.5893 1.4484v.0338c0 .2753-.0547.5479-.1611.8018-.1063.254-.2621.4842-.4584.6774-.1962.1931-.4289.3452-.6845.4475-.2556.1024-.529.1528-.8043.1484-.3741.3664-.887.5929-1.4526.5929-.5691 0-1.0849-.2295-1.4602-.6006-.3481.0005-.6907-.0868-.9961-.2538-.2931.4006-.4448.8872-.4312 1.3833.0136.4962.1918.9738.5065 1.3576l1.0613 1.2949c.0493.0602.0864.1296.1089.2041.0226.0745.0302.1528.0225.2303-.0076.0774-.0305.1527-.0673.2213-.0367.0687-.0866.1294-.1468.1788-.0603.0493-.1296.0863-.2041.1089-.0746.0226-.1528.0302-.2303.0225-.0775-.0076-.1527-.0305-.2214-.0673-.0686-.0367-.1294-.0866-.1787-.1468l-1.0613-1.2949c-.246-.2996-.4393-.6388-.5715-1.0032-.3124.1736-.6673.2558-1.0242.2373-.3569-.0186-.7013-.1372-.994-.3422-.5739-.4026-1.0642-1.6962-1.4704-3.8816 1.8629.1049 3.0813.3587 3.6558.7606.0711.0504.1387.1044.2015.1625zm2.5286-.3581.3474.3439c.166.1642.3872.2573.6255.2573.2372 0 .4566-.0913.6226-.2544l.3533-.3462.4951.0077c.5063 0 .9041-.3978.9041-.8893l-.0077-.5081.3445-.3534c.1618-.166.2526-.3848.2526-.6207 0-.2431-.0967-.4684-.2668-.6356l-.3593-.3516.0029-.5022c0-.4962-.3978-.8946-.8893-.8946l-.4879.0029-.3469-.3344c-.1653-.1604-.3868-.2497-.6172-.249-.1194-.0003-.2377.0236-.3477.0703-.1099.0466-.2093.1151-.292.2013l-.3456.3575-.4981.0041c-.2334.0019-.4567.0954-.6217.2605-.1651.165-.2586.3883-.2605.6218l-.0035.4814-.3386.3427c-.1642.166-.2567.3865-.2567.6249 0 .2413.0949.4642.2627.6314l.3509.348v.4945c0 .2358.0937.462.2605.6288s.393.2605.6289.2605zm.9729-1.1775c-.3145 0-.6161-.1249-.8384-.3473-.2224-.2223-.3473-.524-.3473-.8384 0-.3145.1249-.6161.3473-.8385.2223-.2224.5239-.3473.8384-.3473s.6161.1249.8385.3473.3473.524.3473.8385c0 .3144-.1249.6161-.3473.8384-.2224.2224-.524.3473-.8385.3473zm-5.2073 3.523c.1563.1004.3455.1365.5278.1005.1823-.0359.3437-.141.4502-.2932.1066-.1522.15-.3398.1214-.5234-.0287-.1836-.1274-.3489-.2753-.4614-.2122-.1488-.7102-.2911-1.4644-.3996.249.9284.4897 1.4721.6403 1.5771z" fill="#ba936b"/></svg>