<svg fill="none" height="79" viewBox="0 0 63 79" width="63" xmlns="http://www.w3.org/2000/svg"><g stroke="#ba936b"><g stroke-width="3"><path d="m15.2269 77.4699h-11.88681l5.94339-8.4906m5.94342 8.4906 8.4905-16.9811m-8.4905 16.9811h33.3962m-24.9057-16.9811h-8.4905l-5.94342 8.4905m14.43392-8.4905h12.4529m0 0h12.4528l5.6604 8.4905m-18.1132-8.4905 6.2264 8.4905m6.2264 8.4906h11.3208l-5.6604-8.4906m-5.6604 8.4906-6.2264-8.4906m0 0h11.8868m-11.8868 0h-33.11322"/><path d="m50.0382 20.8662c0 10.16-18.3962 43.5849-18.3962 43.5849s-18.3962-33.4249-18.3962-43.5849 8.2362-18.39623 18.3962-18.39623c10.1599 0 18.3962 8.23623 18.3962 18.39623z" fill="#fff"/><circle cx="31.642" cy="20.8662" fill="#fff" r="11.3208"/><circle cx="31.642" cy="23.6964" fill="#fff" r="8.49057"/></g><path d="m36.1084 46.4294 3.9391-8.4475" stroke-linecap="round" stroke-linejoin="round" stroke-width="2"/><path d="m42.3651 33.6465-.1033.2837" stroke-linecap="round" stroke-linejoin="round" stroke-width="2"/></g></svg>