<svg fill="none" height="80" viewBox="0 0 79 80" width="79" xmlns="http://www.w3.org/2000/svg"><path clip-rule="evenodd" d="m69.2614 57.1943s0 0 0-.0001c0-6.2585-5.0736-11.3321-11.3322-11.3321s-11.3322 5.0736-11.3322 11.3321c0 .0176.0001.0351.0001.0527v-.0526z" fill="#fff" fill-rule="evenodd"/><path d="m69.2614 57.1943v1.5h1.5v-1.5zm-22.6643.0526-1.4999.0068 2.9999-.0068zm0-.0526v-1.5h-1.5v1.5zm21.1643-.0001v.0001h3s0 0 0-.0001zm-9.8322-9.8321c5.4302 0 9.8322 4.402 9.8322 9.8321h3c0-7.087-5.7452-12.8321-12.8322-12.8321zm-9.8322 9.8321c0-5.4301 4.402-9.8321 9.8322-9.8321v-3c-7.087 0-12.8322 5.7451-12.8322 12.8321zm.0001.0459c0-.0153-.0001-.0306-.0001-.0459h-3c0 .0199.0001.0397.0002.0595zm0 .0068v-.0526h-3v.0526zm-1.5 1.4474h22.6643v-3h-22.6643z" fill="#ba936b"/><path clip-rule="evenodd" d="m33.5432 57.1943h-22.6033c.4293-5.8669 5.3252-10.4934 11.3016-10.4934 5.9765 0 10.8724 4.6265 11.3017 10.4934z" fill="#fff" fill-rule="evenodd"/><path d="m10.9399 57.1943-1.49596-.1094-.11775 1.6094h1.61371zm22.6033 0v1.5h1.6137l-.1177-1.6094zm-22.6033 1.5h22.6033v-3h-22.6033zm1.496-1.3905c.3724-5.0888 4.6209-9.1029 9.8056-9.1029v-3c-6.7682 0-12.31139 5.239-12.79756 11.884zm9.8056-9.1029c5.1848 0 9.4333 4.0141 9.8057 9.1029l2.992-.2189c-.4862-6.645-6.0294-11.884-12.7977-11.884z" fill="#ba936b"/><g fill="#fff"><path d="m40.5111 3.46997 2.3558 7.25033h7.6234l-6.1675 4.4809 2.3558 7.2503-6.1675-4.4809-6.1675 4.4809 2.3558-7.2503-6.1675-4.4809h7.6235z" stroke="#ba936b" stroke-width="2"/><path d="m58.349 16.0586 1.5548 4.7852h5.0315l-4.0706 2.9574 1.5548 4.7852-4.0705-2.9574-4.0706 2.9574 1.5549-4.7852-4.0706-2.9574h5.0315z" stroke="#ba936b" stroke-width="2"/><path d="m22.2538 16.0586 1.5548 4.7852h5.0314l-4.0705 2.9574 1.5548 4.7852-4.0705-2.9574-4.0706 2.9574 1.5548-4.7852-4.0705-2.9574h5.0315z" stroke="#ba936b" stroke-width="2"/><path clip-rule="evenodd" d="m52.5026 63.4888c.1186-.9831.1805-1.9944.1805-3.0265 0-9.6878-5.4495-17.5414-12.1717-17.5414-6.7221 0-12.1716 7.8536-12.1716 17.5414 0 1.0321.0619 2.0434.1805 3.0265z" fill-rule="evenodd"/></g><path d="m52.5026 63.4888v1.5h1.3298l.1594-1.3203zm-23.9823 0-1.4892.1797.1594 1.3203h1.3298zm22.6628-3.0265c0 .9722-.0583 1.9235-.1697 2.8468l2.9784.3594c.1258-1.043.1913-2.1142.1913-3.2062zm-10.6717-16.0414c2.7313 0 5.3627 1.5938 7.3743 4.4929 2.0077 2.8934 3.2974 6.9718 3.2974 11.5485h3c0-5.1111-1.4351-9.8034-3.8326-13.2588-2.3937-3.4496-5.8481-5.7826-9.8391-5.7826zm-10.6716 16.0414c0-4.5767 1.2897-8.6551 3.2974-11.5485 2.0116-2.8991 4.643-4.4929 7.3742-4.4929v-3c-3.9909 0-7.4453 2.333-9.839 5.7826-2.3975 3.4554-3.8326 8.1477-3.8326 13.2588zm.1697 2.8468c-.1114-.9233-.1697-1.8746-.1697-2.8468h-3c0 1.092.0655 2.1632.1913 3.2062zm-1.4892 1.6797h23.9823v-3h-23.9823z" fill="#ba936b"/><circle cx="40.5114" cy="36.8372" fill="#fff" r="8.18435" stroke="#ba936b" stroke-width="3"/><circle cx="22.2538" cy="41.0339" fill="#fff" r="6.92522" stroke="#ba936b" stroke-width="3"/><circle cx="58.7686" cy="41.0339" fill="#fff" r="6.92522" stroke="#ba936b" stroke-width="3"/><path d="m77.4458 46.8867c0 17.4429-16.959 31.5832-37.8789 31.5832s-37.87885-14.1403-37.87885-31.5832" stroke="#ba936b" stroke-linecap="round" stroke-width="3"/></svg>